<?xml version="1.0" ?><svg baseProfile="tiny" height="232.927px" id="Layer_1" version="1.2" viewBox="50.052 137.5 267.847 232.927" width="267.847px" xml:space="preserve" xmlns="http://www.w3.org/2000/svg" xmlns:xlink="http://www.w3.org/1999/xlink"><path d="M50.052,146.111c0.166-5.945,4.475-8.444,9.996-8.444h247.903c5.521,0,9.996,3.781,9.996,8.444v154.426  H50.052V146.111z" fill="#353C42"/><path d="M50.052,321.963v-21.796h267.896v21.796c0,5.523-4.477,10-10,10H60.052  C54.529,331.963,50.052,327.486,50.052,321.963z" fill="#D1D3D4"/><rect fill="#304269" height="134.417" width="242.333" x="63" y="153"/><path d="M229.889,366.253c-1-1.17-10.631-9.07-11.67-11.34c-0.83-2.48-3-22.661-3-22.661l-34,0.03v0.017  l-28.386-0.024c0,0-2.17,20.181-3,22.66c-1.04,2.271-10.67,10.171-11.67,11.341c-1,1.159,0,2.33,0,2.33s1.149,1.329,4.25,1.6  c1.62,0.15,23.39,0.229,44.42,0.221v-0.021c19.128-0.006,37.329-0.084,38.806-0.222c3.1-0.27,4.25-1.6,4.25-1.6  S230.889,367.413,229.889,366.253z" fill="#808285"/><path d="M229.889,365.253c-1-1.17-10.631-9.07-11.67-11.34c-0.83-2.48-3-22.661-3-22.661l-34,0.03v0.017  l-28.386-0.024c0,0-2.17,20.181-3,22.66c-1.04,2.271-10.67,10.171-11.67,11.341c-1,1.159,0,2.33,0,2.33s1.149,1.329,4.25,1.6  c1.62,0.15,23.39,0.229,44.42,0.221v-0.021c19.128-0.006,37.329-0.084,38.806-0.222c3.1-0.27,4.25-1.6,4.25-1.6  S230.889,366.413,229.889,365.253z" fill="#D1D3D4"/><g><path d="M215.969,338.063l-63.885,0.063c0.292-3.083,0.667-6.125,0.667-6.125l28.597,0.076v-0.015l33.924-0.084   C215.271,331.979,215.573,334.916,215.969,338.063z" fill="#808285"/></g><circle cx="184.167" cy="145.313" fill="#D1D3D4" r="1.5"/></svg>